<svg width="368" height="366" viewBox="0 0 368 366" fill="none" xmlns="http://www.w3.org/2000/svg">
<path d="M0 0V366H368V0H0Z" fill="#FEFEFE"/>
<path d="M171 105C165.962 105.744 161.419 107.488 157 110C146.226 82.1908 110.634 86 87 86C80.9307 86 75.0404 85.3106 69 84.9645C64.0157 84.679 58.3437 83.5548 54 80.9992C50.678 79.0447 46.5527 74.2925 42.5579 77.608C32.6261 85.8508 40.872 102.603 45.5748 111C52.3505 123.098 53.2929 137.272 58.4529 150C63.14 161.561 71.287 171.263 80 180C74.313 181.642 70.1446 184.771 66.0394 189.004C64.1087 190.995 61.3564 195.804 58.385 196.23C54.6026 196.772 51.5143 190.627 50 188C51.7687 187.679 53.3741 187.43 54.9807 186.543C64.3371 181.379 55.8321 171.191 48.2284 177.509C46.3949 179.033 45.742 180.842 45 183C36.65 178.562 37.3219 172.139 39 164C34.5267 169.075 33.7172 177.252 37.7029 182.957C39.4676 185.483 42.2633 186.933 44.0802 189.375C47.9469 194.572 48.8629 199.556 56 201C54.4163 206.104 51.8157 210.775 50.4784 216C47.3398 228.264 47.1104 241.611 49.6659 254C51.7635 264.169 57.0781 273.101 59.6489 283C62.5428 294.143 61.8386 306.104 65.6991 317C69.4085 327.47 77.6637 336.029 89 337.699C95.7253 338.69 101.897 337.457 105 331C107.977 332.057 110.814 333.573 114 333.891C127.345 335.222 130.531 324.925 131 314C137.067 316.95 147.94 318.178 152.272 323.394C154.42 325.978 154.976 329.933 156.208 333C159.057 340.095 163.554 347.34 171 350.185C174.911 351.68 179.848 352.596 184 351.691C186.429 351.161 188.501 349.577 191 349.329C195.425 348.892 199.587 350.927 204 349.142C209.522 346.909 214.833 341.14 218.985 336.985C232.5 321 245 297 248 276C257.589 274.702 267.242 270.223 276 266.231C295.186 257.484 314.81 246.229 328.7 230C338.197 218.903 344.723 202.079 337.326 188C330 174.055 312.997 178.317 302.004 169.61C290.324 160.359 285.324 144.796 276.845 133C273.512 128.363 270.117 123.758 265.91 119.87C263.053 117.231 258.812 115.066 256.643 111.816C254.487 108.586 256.057 103.666 255.985 100C255.861 93.7389 254.6 86.9444 252.641 81C250.135 73.3943 245.776 65.7951 239.91 60.2894C234.212 54.9413 226.862 51.4022 222.221 44.9606C217.027 37.7524 214.58 25.379 205.985 21.1937C195.471 16.0736 193.088 36.1356 189.301 42C177.698 59.9677 152.607 82.5565 171 105Z" fill="black"/>
<path d="M249 109C251.716 94.372 247.1 76.9755 236.907 66.0038C230.652 59.2713 222.028 54.8532 216.969 47C213.374 41.419 211.709 34.7266 208.319 29.0046C207.199 27.1137 205.07 23.3935 202.302 24.3457C200.172 25.0782 199.964 28.1821 199.555 30.0008C198.462 34.8575 197.044 39.6678 194.535 44C186.126 58.5233 171.403 69.011 170.09 87C169.768 91.4135 169.575 100.014 173.702 102.958C175.73 104.404 178.774 103.441 181 103.08C186.054 102.262 190.885 102 196 102C214.484 102 231.384 103.05 249 109ZM45 80C43.7546 83.2339 42.2249 85.4691 42.1829 89C42.0511 100.077 50.1531 108.981 53.6551 119C57.7577 130.737 59.2221 142.976 65.3125 154C77.4797 176.023 103.687 192.226 129 183C119.947 191.584 109.881 193.063 98 189.841C89.2094 187.457 85.5 181.973 78 187.5C76.5942 188.536 74.1782 190.22 73 191.5C57.6536 208.182 51.5694 231.505 56.6543 253C58.9747 262.809 64.3774 272.037 65.8302 282C68.0331 297.105 67.174 318.421 81.0039 328.2C85.5365 331.405 94.7477 334.348 99.7215 330.397C104.539 326.57 103.811 318.423 104.039 313C104.133 310.777 104.848 308.223 104.227 306.039C102.694 300.651 91.5 293 89 288C101 302.5 130.919 312.429 150 315C149.022 310.873 147.357 307.012 146 303C151.168 310.259 155.025 318.84 158.576 327C161.318 333.304 164.231 340.33 170.015 344.486C173.003 346.634 181.915 349.493 184.992 346.382C187.842 343.499 188.224 336.816 188.996 333C191.369 321.269 194 308.5 195.5 297C196.5 303.5 196 311.161 196 318C205.25 315.803 213 310 220.5 304.5C216.581 309.423 211.053 314.53 206 318.292C203.288 320.31 199.842 321.575 197.652 324.224C193.085 329.748 193.5 339.5 193 345.5C203.136 345.471 210.207 339.221 216.91 332C230.169 317.714 238.912 296.639 244 278C229.966 278.604 216.198 279.626 202 279C194.32 278.661 184.5 278 177.5 275.5C188.5 276 204.696 275.685 216 274.91C238.136 273.393 259.162 267.141 279 257.247C285.818 253.846 293.985 250.894 299 245C290.927 240.943 282.738 240.147 277.249 231.985C264.816 213.499 283.816 185.547 301 178C298.543 175.351 295.962 173.066 293 171C292.498 174.335 291.669 177.256 289.581 179.996C282.237 189.634 272.347 187.254 265.8 177.996C261.156 171.428 260.14 162.723 261.819 155C263.614 146.749 268.371 141.494 277 143C273.625 135.179 267.408 126.175 260.5 121C255.677 117.387 249.65 114.216 244 112.333C226.24 106.413 204.614 105.368 186 107.17C176.913 108.049 169 110 159.5 113.5C161 120 162.5 124 164 131C160.354 123.206 157.067 115.737 151.535 109C129.94 82.6971 95.0611 95.8767 66 90.6782C61.7673 89.9211 57.4083 88.2802 54.0147 85.6072C50.8515 83.1157 48.9267 81.1966 45 80Z" fill="#FEFEFE"/>
<path d="M65 108C68.7999 114.026 74.091 118.457 77.2153 125C84.7383 140.754 86.768 159.854 105 167.535C118.006 173.015 143.489 169.971 146.659 153C149.217 139.306 135.977 122.195 125 115.88C106.683 105.342 84.4312 115.243 65 108Z" fill="black"/>
<path d="M76 117C79.4873 122.295 82.9625 127.26 85.7415 133C89.8244 141.433 92.7875 150.037 100.09 156.38C108.694 163.856 122.862 165.692 133 160.095C138.473 157.073 143.459 151.778 142.191 145C141.387 140.697 138.13 136.365 135.482 133C131.355 127.754 126.14 122.69 120 119.904C106.743 113.891 90.0901 118.112 76 117Z" fill="#FEFEFE"/>
<path d="M257 140C260.42 136.213 262.688 132.82 268 132C261.746 127.802 255.591 133.129 257 140Z" fill="black"/>
<path d="M268 149C282.872 148.56 285.805 167.611 285 179C293.34 170.676 287.642 163.351 282.873 155C279.322 148.784 274.698 140.965 268 149Z" fill="#FEFEFE"/>
<path d="M185 157C191.343 153.186 196.516 151.062 204 151C197.403 146.493 188.302 150.248 185 157Z" fill="black"/>
<path d="M266.545 154.014C265.545 155.514 266.045 157.514 267.045 158.514C268.15 159.619 269.753 159.306 270.545 158.514C271.337 157.722 270.979 155.612 270.045 154.014C269.346 152.818 267.545 152.514 266.545 154.014Z" fill="#FEFEFE"/>
<path d="M197 164.53C186.165 166.983 182.008 177.903 182.008 188C182.008 204.244 196.19 222.109 214 218.329C245.498 211.645 224.226 158.368 197 164.53Z" fill="black"/>
<path d="M217 213C212.286 210.861 208.021 210.032 204.329 205.907C196.421 197.068 193.198 175.735 207 171C198.473 165.893 190.255 172.514 187.928 181C182.931 199.224 197.685 218.709 217 213ZM205.5 176C203.68 176.958 203.48 178.221 203.368 180.009C202.752 189.887 219.635 185.17 212.562 177.97C211.881 177.276 210.846 176.78 209.981 176.367C208.346 175.588 207.285 175.06 205.5 176ZM50 183C52.4343 182.349 53.2827 181.84 55 180C52.5656 180.651 51.7173 181.16 50 183ZM304 181.653C289 190 277.719 206.031 279 221C280.019 232.902 295.106 241.006 306 238.073C318.342 234.749 332.202 219.91 333.815 207C334.742 199.58 334.394 189.461 326.96 185.453C323.356 183.51 318.944 182.44 315 181.653C311.342 180.923 307.392 179.766 304 181.653Z" fill="#FEFEFE"/>
<path d="M108 306.5C107.983 312.527 106 324 108 328C108.921 329.842 115.454 330.963 118.5 330C127 327.5 129.022 315.772 125.494 313.5C122.604 311.639 112.369 307.502 108 306.5Z" fill="#FEFEFE"/>
<path d="M294 205C293.426 202.849 293.84 199.54 296 199C298 198.5 298.469 199.438 299 200.5C302 206.5 305 214.5 305.5 217C306.074 219.872 306.791 221.628 306 224C305.5 225.5 304.229 225.125 303 225C301.599 224.858 300.674 224.236 300 223C297 217.5 296 212.5 294 205Z" fill="black"/>
<path d="M314 190.5C314.329 188.853 316.406 187.969 318 188.5C319.5 189 324 199.5 325 203.5C325.375 205 326.5 210 326 211.5C325.518 212.947 324.511 213.791 323 214C321.527 214.203 320.165 213.83 319.5 212.5C317.5 208.5 315.411 203.607 314.5 197.5C314.096 194.789 313.5 193 314 190.5Z" fill="black"/>
</svg>
