<svg width="368" height="366" viewBox="0 0 368 366" fill="none" xmlns="http://www.w3.org/2000/svg">
<g clip-path="url(#clip0)">
<path d="M0 0V366H368V0H0Z" fill="#FEFEFE"/>
<path d="M66.0394 189.004C70.1446 184.771 74.313 181.642 80 180L250.5 267C247.5 288 232.5 321 218.985 336.985C214.833 341.14 209.522 346.909 204 349.142C199.587 350.927 195.425 348.892 191 349.329C188.501 349.577 186.429 351.161 184 351.691C179.848 352.596 174.911 351.68 171 350.185C163.554 347.34 159.057 340.095 156.208 333C154.976 329.933 154.42 325.978 152.272 323.394C147.94 318.178 137.067 316.95 131 314C130.531 324.925 127.345 335.222 114 333.891C110.814 333.573 107.977 332.057 105 331C101.897 337.457 95.7253 338.69 89 337.699C77.6637 336.029 69.4085 327.47 65.6991 317C61.8386 306.104 62.5428 294.143 59.6489 283C57.0781 273.101 51.7635 264.169 49.6659 254C47.1104 241.611 47.3398 228.264 50.4784 216C51.8157 210.775 54.4163 206.104 56 201C48.8629 199.556 47.9469 194.572 44.0802 189.375C42.2633 186.933 39.4676 185.483 37.7029 182.957C33.7172 177.252 34.5267 169.075 39 164C37.3219 172.139 36.65 178.562 45 183C45.742 180.842 46.3949 179.033 48.2284 177.509C55.8321 171.191 64.3371 181.379 54.9807 186.543C53.3741 187.43 51.7687 187.679 50 188C51.5143 190.627 54.6026 196.772 58.385 196.23C61.3564 195.804 64.1087 190.995 66.0394 189.004Z" fill="black"/>
<path d="M98 189.841C109.881 193.063 119.947 191.584 129 183L179 266C187.5 267.5 204.5 269 212 269C221 269 231 269 246.5 268.5C241.412 287.139 230.169 317.714 216.91 332C210.207 339.221 203.136 345.471 193 345.5C193.5 339.5 193.085 329.748 197.652 324.224C199.842 321.575 203.288 320.31 206 318.292C211.053 314.53 216.581 309.423 220.5 304.5C213 310 205.25 315.803 196 318C196 311.161 196.5 303.5 195.5 297C194 308.5 191.369 321.269 188.996 333C188.224 336.816 187.842 343.499 184.992 346.382C181.915 349.493 173.003 346.634 170.015 344.486C164.231 340.33 161.318 333.304 158.576 327C155.025 318.84 151.168 310.259 146 303C147.357 307.012 149.022 310.873 150 315C130.919 312.429 101 302.5 89 288C91.5 293 102.694 300.651 104.227 306.039C104.848 308.223 104.133 310.777 104.039 313C103.811 318.423 104.539 326.57 99.7215 330.397C94.7477 334.348 85.5365 331.405 81.0039 328.2C67.174 318.421 68.0331 297.105 65.8302 282C64.3774 272.037 58.9747 262.809 56.6543 253C51.5694 231.505 57.1536 207.682 72.5 191C73.6782 189.72 75.5942 188.036 77 187C84.5 181.473 89.2094 187.457 98 189.841Z" fill="white"/>
<path d="M51.185 183C53.6193 182.349 54.4677 181.84 56.185 180C53.7506 180.651 52.9023 181.16 51.185 183Z" fill="#FEFEFE"/>
<path d="M108 306.5C107.983 312.527 106 324 108 328C108.921 329.842 115.454 330.963 118.5 330C127 327.5 129.022 315.772 125.494 313.5C122.604 311.639 112.369 307.502 108 306.5Z" fill="#FEFEFE"/>
<path d="M158.064 113.596C161.971 110.344 166.135 107.826 170.963 106.205C148.9 87.3577 169.613 60.6977 177.866 40.9653C180.559 34.5249 179.366 14.3571 190.619 17.5426C199.817 20.1464 204.408 31.8943 210.792 38.0735C216.496 43.5956 224.355 45.7829 230.907 50.0422C237.652 54.427 243.283 61.1383 247.091 68.1828C250.068 73.6885 252.507 80.1541 253.734 86.2952C254.451 89.891 253.773 95.0108 256.465 97.8099C259.173 100.626 263.73 102.01 267.007 104.103C271.834 107.188 275.988 111.122 280.087 115.099C290.513 125.215 298.18 139.652 311.308 146.698C323.665 153.329 339.649 146.136 349.32 158.57C359.084 171.124 355.628 188.835 348.237 201.433C337.427 219.857 320.095 234.397 302.753 246.39C282 260.742 269.5 264 246.5 268L143.378 190.39C143.378 190.39 124.934 215.029 94.6167 196.079C84.1535 189.539 74.7689 180.903 68.1163 170.35C60.7924 158.731 57.365 144.946 48.5618 134.232C42.4517 126.796 31.3805 111.761 39.7029 101.896C43.0503 97.9277 47.9491 101.878 51.5637 103.216C56.2901 104.965 62.0714 105.072 67.0279 104.473C73.0347 103.749 78.9543 103.389 84.9284 102.318C108.192 98.1499 142.554 88.1231 158.064 113.596Z" fill="black"/>
<path d="M228.959 56.1966C240.927 65.1986 248.539 81.5083 248.445 96.386C230.056 93.6362 213.236 95.5833 195.042 98.8432C190.007 99.7454 185.298 100.855 180.467 102.552C178.34 103.3 175.513 104.785 173.262 103.719C168.681 101.549 167.354 93.0492 166.892 88.6481C165.012 70.7095 177.655 57.7895 183.37 42.0108C185.076 37.304 185.623 32.319 185.843 27.3457C185.924 25.4834 185.582 22.3914 187.549 21.2948C190.106 19.8693 192.858 23.1557 194.294 24.8194C198.64 29.8538 201.459 36.1477 205.982 41.0072C212.347 47.845 221.615 50.6729 228.959 56.1966Z" fill="white"/>
<path d="M41.343 113.175C40.7616 109.692 41.8731 107.222 42.5286 103.82C46.6048 104.305 48.8379 105.854 52.3909 107.749C56.2028 109.782 60.7828 110.628 65.0827 110.627C94.6051 110.618 126.613 91.4938 152.508 113.576C159.142 119.231 163.694 126.004 168.658 133.032C166.835 126.295 164.5 123.5 161 117C170 112.5 177.321 108.164 186.11 105.696C204.115 100.639 225.586 97.8537 244.112 100.549C250.005 101.406 257.115 103.794 262.5 106.5C270.212 110.376 281.893 123.592 286.595 130.696C296 142.5 301.309 145.346 304 148C306.691 150.654 310.114 151.826 313 154C295 164.5 282.444 196.458 297.942 212.461C304.785 219.527 312.986 218.866 321.648 221.436C317.751 228.122 310.232 232.468 304.121 237.018C286.339 250.256 265.633 257.103 244.112 262.5C233.122 265.257 166.416 265.552 155.5 267L143.378 190.39C120.089 203.936 91.4345 192.609 75.5739 173.077C67.6347 163.3 64.0347 151.511 57.9264 140.682C52.7122 131.437 43.1669 124.102 41.343 113.175Z" fill="white"/>
<path d="M67.1534 127.853C71.9565 133.115 77.9461 136.543 82.1754 142.433C92.359 156.613 97.7255 175.055 117.026 179.4C130.795 182.501 155.342 175.01 155.469 157.746C155.572 143.816 139.521 129.308 127.603 125.028C107.714 117.886 87.5574 131.556 67.1534 127.853Z" fill="black"/>
<path d="M79.5683 134.772C83.9348 139.369 88.2311 143.644 91.9789 148.803C97.4851 156.384 101.919 164.331 110.226 169.286C120.014 175.128 134.283 174.436 143.275 167.139C148.13 163.199 152.103 157.108 149.66 150.659C148.11 146.566 144.14 142.876 140.94 140.031C135.952 135.595 129.926 131.53 123.391 129.871C109.281 126.29 93.6336 133.382 79.5683 134.772Z" fill="#FEFEFE"/>
<path d="M316.563 157.991C302.121 165.133 294.099 186.992 298 201.5C301.102 213.036 318.277 217.982 328.483 213.174C340.045 207.725 351.071 190.674 350.381 177.682C349.985 170.215 347.858 160.316 339.834 157.682C335.943 156.405 331.57 157.014 327.549 156.935C323.82 156.861 320.042 156.27 316.563 157.991Z" fill="#FEFEFE"/>
<path d="M309.671 182.945C308.727 180.929 308.551 177.598 310.582 176.686C312.462 175.841 313.089 176.682 313.799 177.633C317.81 183.01 322.174 190.356 323.107 192.728C324.179 195.454 325.194 197.056 324.834 199.53C324.607 201.095 323.289 200.95 322.058 201.044C320.653 201.151 319.633 200.702 318.752 199.604C314.829 194.72 312.963 189.974 309.671 182.945Z" fill="black"/>
<path d="M326.8 165.145C326.834 163.465 328.722 162.229 330.385 162.471C331.95 162.698 337.31 172.239 339 176C339.634 177.41 342.544 182.134 342.316 183.699C342.097 185.208 341.254 186.217 339.804 186.689C338.39 187.149 336.983 187.022 336.094 185.83C333.42 182.245 330.501 177.797 328.527 171.947C327.651 169.349 326.749 167.694 326.8 165.145Z" fill="black"/>
<path d="M258.769 134.157C257.014 138.536 258.322 151.508 261.944 151.875C263.895 152.073 264.89 140.172 267.753 136.103C270.616 132.035 281.996 129.645 290.04 130.078C290.04 130.078 284.226 123.146 274.672 123.689C270.103 123.948 261.402 127.59 258.769 134.157Z" fill="black"/>
<path d="M257.19 120.925C261.744 118.623 265.081 116.274 270.332 117.422C266.009 111.253 258.349 114.007 257.19 120.925Z" fill="black"/>
<path d="M209.268 166.901C218.161 164.537 233.369 168.17 232.826 170.807C232.283 173.445 210.906 173.211 204.002 180.036C197.097 186.861 195.49 203.403 192.537 203.932C189.584 204.462 188.819 188.852 191.029 181.344C193.545 172.799 200.659 169.19 209.268 166.901Z" fill="black"/>
<path d="M179.722 166.212C183.013 159.583 186.229 155.008 192.502 150.927C184.517 150.68 178.869 158.745 179.722 166.212Z" fill="black"/>
</g>
<defs>
<clipPath id="clip0">
<rect width="368" height="366" fill="white"/>
</clipPath>
</defs>
</svg>
