<svg xmlns="http://www.w3.org/2000/svg" viewBox="0 0 417.86 502.71"><defs><style>.cls-1{fill:#964bae;}.cls-2{fill:#fff;}</style></defs><title>falling</title><g id="Layer_2" data-name="Layer 2"><g id="Layer_1-2" data-name="Layer 1"><g id="FM8gEa.tif"><path class="cls-1" d="M332.37,252.84c-14.43,29.11-28.52,57.27-42.32,85.58-3.61,7.39-8.19,13.35-15.21,18q-75,49.9-149.62,100.3c-8.24,5.54-16.93,7.69-26.54,3.94-7-2.73-14.61-7.87-14.45-14.33.28-10.87-3.93-24,9.75-31.77,12-6.78,23-15.07,34.51-22.72,28.82-19.24,57.62-38.49,88.31-59-26.73-13.51-51.9-26.29-77.12-39-4.15-2.09-7.79.52-11.47,1.94q-43.92,16.94-87.8,33.93c-18.42,7.11-32.9,2-38.7-13.69-5.39-14.56,2.14-27.67,20.22-34.7,34-13.23,68.09-26.17,102-39.55,10.66-4.2,20.46-4,30.67,1.46,13.25,7.15,26.88,13.62,40.42,20.21,16.23,7.89,24.74,6.49,37.31-5.75,14.93-14.56,25.29-32.09,34.06-50.83,2.7-5.76,1-9.84-.92-15-20-52.8-39.7-105.72-59.57-158.57-4.31-11.49-2-21.15,7.8-28.48,8.82-6.64,18.23-6.25,27.44-.47,4.75,3,7.3,7.51,9.23,12.69,17.07,45.82,34.42,91.54,51.27,137.44,3.14,8.53,7.71,14.6,16.14,18.24,27.19,11.75,47.16,30.9,58.8,58.41a31.54,31.54,0,0,0,4.74,8.07c35.11,41.55,33.36,92.62,36.47,142.3.81,13-9.86,23.1-22.35,23.81-12.89.73-23.74-9-25-22.73-1-10.22-2.91-20.57-2.16-30.7C371.09,314,355.45,283,332.37,252.84Z"/><path class="cls-2" d="M108.26,448a11.69,11.69,0,0,1-4.27-.88,21.48,21.48,0,0,1-5.16-2.78c0-1.87-.13-3.68-.22-5.44-.54-9.84.12-10.21,2.57-11.6,9-5.08,17.34-10.87,25.45-16.48,3.31-2.28,6.62-4.57,10-6.8l62.18-41.54L224.9,345a14.59,14.59,0,0,0-1.52-25.15l-20.07-10.15c-19.44-9.84-38.25-19.36-57.08-28.83a21.55,21.55,0,0,0-9.77-2.33,28.38,28.38,0,0,0-12.07,3.08c-.48.21-1,.44-1.43.62L70.18,302.62l-35,13.54a28.75,28.75,0,0,1-10,2.16c-5,0-7.87-2.11-9.79-7.3-.92-2.48-3.7-10,11.82-16q20.09-7.82,40.21-15.54c20.29-7.82,41.28-15.9,61.89-24a24.2,24.2,0,0,1,8.88-1.91,19.58,19.58,0,0,1,9.52,2.65c11.42,6.15,23.16,11.85,34.52,17.35l6.44,3.13C197.75,281,204.93,283,212,283c13.65,0,23.52-7.91,30.59-14.81,14.38-14,25.82-31,37.1-55.09,5.24-11.2,1.87-20.07-.35-25.94l-.15-.39c-13-34.24-26-69.11-38.67-102.84Q230,56.08,219.59,28.24c-2.37-6.31-1-8.79,2.9-11.69,2.34-1.76,3.89-2,4.86-2a12.59,12.59,0,0,1,6.08,2.19c.78.49,1.85,1.54,3.3,5.42q9.32,25,18.71,50c10.73,28.62,21.83,58.22,32.54,87.38,4.83,13.15,12.47,21.61,24,26.61,24.45,10.56,41.18,27.14,51.16,50.7a45.83,45.83,0,0,0,7,11.79c27.85,33,29.91,73.41,32.09,116.24.3,5.74.6,11.69,1,17.56a6.9,6.9,0,0,1-1.82,5.14,10,10,0,0,1-6.8,3.2h-.53c-4.86,0-8.62-3.92-9.15-9.55-.28-2.9-.62-5.77-.95-8.55-.84-7-1.64-13.68-1.19-19.7C386.33,305.91,363.89,270,344,244a14.58,14.58,0,0,0-11.58-5.72,13.31,13.31,0,0,0-1.41.07,14.58,14.58,0,0,0-11.66,8q-5.9,11.89-11.71,23.59C297,291.26,287,311.38,276.94,332c-2.79,5.71-5.83,9.38-10.18,12.28-40,26.62-80.54,53.87-119.74,80.22l-29.93,20.11C113.74,446.88,110.86,448,108.26,448Z"/><path class="cls-1" d="M411.33,126.33a50.83,50.83,0,0,1-51.69,50.19c-28.92-.24-51.35-23.26-51.06-52.39A51.81,51.81,0,0,1,361.14,73C389.57,73.48,411.69,97,411.33,126.33Z"/><path class="cls-2" d="M359.76,161.93a36.6,36.6,0,0,1-26.06-10.85,37.49,37.49,0,0,1,26.47-63.55h.69c20.38.38,36.14,17.34,35.88,38.61-.25,20.07-16.35,35.78-36.66,35.78Z"/><path class="cls-1" d="M168.21,486.45c30,0,60.07-.13,90.11.11,5.32.05,9.64,2.95,9.23,9.13-.44,6.64-5.34,7.61-10.66,6.77-29.64-4.65-59.26-9.44-88.88-14.17Z"/><path class="cls-1" d="M220.67,459c23.5-4.62,42-7.57,52.36-8.81,2.75-.33,8-.91,12.11,2.24a13.51,13.51,0,0,1,5.1,9.77c.75,9-8.5,7.8-14.93,8-2.2.06-4.41-.19-6.62-.29-5.43-10.47-15-3.13-22.42-5.21-2.21-.62-7,.18-12.48-.9A46.44,46.44,0,0,1,220.67,459Z"/><path class="cls-1" d="M236.42,438.21c-18.76,2.18-36.19,12-56.23,8.6L225.67,428l10-4Z"/><path class="cls-1" d="M236.42,438.21,235.67,424a63.67,63.67,0,0,1,8.15-3c6.49-1.92,10.44-2.92,13.64-1a7.9,7.9,0,0,1,3.16,4.33c3.2,9-4.34,10.71-11.35,11.61C245,436.51,240.7,437.44,236.42,438.21Z"/><path class="cls-1" d="M230.67,457a33.48,33.48,0,0,1,17,1c2.55.87,2.51,1.25,5,2,9.11,2.75,14.85-.66,17,2,.87,1.07,1.22,3.21-1,7.9l-16.13.07c-5.41-4-10.78-4.1-16.1.17l-5.28.05c-4.22-4.88-9.86-2.28-14.89-2.79-4.61-.47-10,1.41-12.52-4.66q6.55-1.56,13.42-3T230.67,457Z"/><path class="cls-1" d="M203.77,462.74c2.49,6.07,7.91,4.19,12.52,4.66,5,.51,10.67-2.09,14.89,2.79l-56.32,2.09,0-4.29Z"/><path class="cls-1" d="M174.89,468l0,4.29c-6.53,1.05-13,1.28-23.32-.76Z"/><path class="cls-1" d="M236.46,470.14c5.32-4.27,10.69-4.15,16.1-.17Z"/><path class="cls-1" d="M231.14,427.07c-.54,1.36-1.28,2-2.54.69Z"/></g></g></g></svg>