<svg xmlns="http://www.w3.org/2000/svg" viewBox="0 0 650.03 644.03"><defs><style>.cls-1{fill:#964bae;}</style></defs><title>going_to_goal</title><g id="Layer_2" data-name="Layer 2"><g id="Layer_1-2" data-name="Layer 1"><g id="Llutyx.tif"><path class="cls-1" d="M0,384.72C18.52,365,29.16,340.66,40.06,316.4c10.68-23.77,21.25-47.63,33.14-70.8,20.91-40.76,51.65-71.39,95.21-87.81,5.09-1.92,8.53-2.92,6.14-10.56-9.32-29.82-.23-55.95,23.5-71.29,21.39-13.83,50.47-12.16,70.63,4.06,21,16.86,27,44,16.11,72.3-.32.85-.41,1.79-1,4.63,14.39,0,28.38-.21,42.35.09,7.2.16,5.72-4.71,5.74-8.71.07-21.93.37-43.87-.11-65.79-.26-11.57,4.06-16.71,15.92-16,10.45.59,21,.28,31.45.08,8.93-.17,13.1,3.8,13.06,12.85-.16,30,.48,60.08-.29,90.09-.67,25.9-22.14,46.24-48.13,46.86-13.82.33-27.67.46-41.47-.09-7.76-.31-10.65,1.63-10.65,10.07,0,20.93-.49,20.93,20.81,20.93,12.87,0,25.74-.18,38.61,0,28.23.49,49.42,19.75,50.51,47.65,1.05,26.65.23,53.38.37,80.07,0,8.86-3.66,13.07-12.9,12.84q-21.43-.56-42.9,0c-10.58.28-14.48-4.76-14.31-14.76q.36-22.87-.07-45.76c-.07-3.64,2.65-10-4.18-9.94-6,.06-14.82-4.49-17.74,4-5.44,15.86-18,22.77-31.89,28.21-12.47,4.88-18.25,12.11-17.42,26.67,1.43,25.19-.17,50.53.63,75.77.41,12.89-4.61,16.9-16.77,16.2-12.83-.74-25.74-.51-38.6-.06-10.35.35-14.69-3.8-14.45-14.31.43-19,.12-38.08.12-59.28C153.1,410.89,119.34,391,84,384.37c-23.65-4.44-47.14-7.92-67.31,10.86-5.41,5-11.45,1.63-16.71-1.92ZM186.69,287.3c-8.46-8.06-17-16.31-25.66-24.42-7-6.52-7.1-12.76-.13-19.47,8.91-8.6,17.39-17.66,26.37-26.19,4.91-4.66,8.91-12.87,17.52-9.1,8.09,3.54,6.6,11.77,6.6,18.86,0,69.59.44,139.17-.38,208.75-.16,13.18,5.68,12.85,15,12.9,9.83.06,16.66.65,16.29-13.49-1.07-40.48-.18-81-.5-121.52-.09-10.54,2.85-15.82,14.56-15.58,27.15.56,54.32.41,81.48.06,10.55-.14,14.49,4.37,14.23,14.6-.39,15.72.19,31.46-.24,47.18-.17,6.29,1.76,8.54,8,8a104.28,104.28,0,0,1,15.71,0c5.5.33,7.5-1.7,7.42-7.35-.29-21,.59-42-.41-62.9-.91-19-13.69-30-32.82-30.13-21-.14-41.94-.24-62.9.05-10.84.16-15.78-4.29-15.23-15.36.47-9.51.1-19.06.1-28.59,0-26.07,0-26.07,25.37-26.07,14.29,0,28.62.52,42.88-.15,21.17-1,31.93-12.64,32-33.73.13-22.88-.43-45.77.27-68.63.27-8.74-3.85-8.93-10.22-8.83-6.12.09-10.68-.44-10.35,8.66.8,21.9-.14,43.85.42,65.76.31,11.81-4.29,16.15-16,15.83-21.43-.58-42.89-.35-64.33-.1-16.06.18-20.17,4.45-20.19,19.75,0,13.82-.54,27.67.19,41.46.45,8.51-2.75,10-10.49,10.18-8.63.24-10.36-3-9.84-10.66.58-8.54-.43-17.19.26-25.72C233,196.23,232.9,183,212,183.68c-3.37.12-7.13-2.57-10.21-4.68-4.53-3.11-7.21-1.67-10.72,1.92-17,17.36-34.59,34.12-51.35,51.68-11.59,12.15-11.25,28.7,0,41.14,9.57,10.54,19.56,20.7,30.16,31.88ZM40,362.21c32.15-3.29,60,4.57,87.61,13.6,18.44,6,37.08,8.3,55.77.55,4.56-1.89,8.31-3.5,8.17-9.79-.39-17.35-.13-34.71-.13-54.55-4,3.68-6.3,5.27-8,7.34-9.07,11.25-17.45,10.86-26.81-.13-7.39-8.68-16-16.28-24.14-24.35-28.43-28.36-28.23-55.21.18-83.94,6.57-6.65,15-12,20.34-24.33C86.94,228.59,73.44,299.78,40,362.21ZM230.86,86.29c-22-.09-40.35,17.53-41,39.25-.62,22.13,18.13,41.44,40.31,41.52S271.7,148,271.28,126.19,252.52,86.39,230.86,86.29Zm30.76,248.79c9.64-4.73,21-6.17,27.58-17.43C254.45,315.88,260.7,316.81,261.62,335.08Z"/><path class="cls-1" d="M6,629q66.32-66,132.63-132c12.48-12.42,14-12.46,26.35-.2,20,19.81,40.15,39.43,59.6,59.75,6.14,6.41,9.24,6.32,15.44,0,35.06-35.73,70.89-70.71,105.9-106.5,9.28-9.48,16.05-9.35,24.5.41,7.15,8.27,15.92,15.15,23,23.48,6.92,8.16,11.3,8.68,19.45.41,53.86-54.71,108.38-108.76,162.65-163.06,5.08-5.08,9.63-10.57,18.06-9.53,6.58.81,6.23-4.23,6.23-8.58,0-62.95-.07-125.89.13-188.84,0-6.58-3.11-8.86-8.64-11-25.62-10-51.08-20.35-76.53-30.76-6.35-2.59-15.11-3.35-15.47-12.48-.37-9.36,8.44-10.41,14.72-13C541.69,25.94,569.48,15,597.22,4c18.69-7.43,21.87-5.4,21.88,14.39,0,89.65.24,179.3-.27,269-.07,11.85,3,15.64,14.89,15.05,5.1-.25,15-6.39,16.15,6.41.76,8.46-.8,14-11.08,12-33.47-6.5-56.24,8.64-78.62,32.66-46.47,49.84-96.12,96.71-144,145.29-9.69,9.83-16.42,9.77-25.88,0-10.43-10.78-20.19-29.59-32.8-28.87-11.13.64-21.4,18.36-31.84,28.75-27.06,26.89-54.24,53.67-80.85,81-9,9.21-15.71,9.71-24.84.15-20.08-21-41.16-41.1-61.44-62-5.17-5.33-8-5.44-13.37,0-37.5,38-75.36,75.69-113.16,113.42-3.44,3.43-7,6.6-6,12.13-1.91,0-3.88-.32-5.71,0C8.19,645.86,3.43,641.14,6,629ZM536.05,49.73c10.67,4.43,18.76,8.39,27.23,11.14,11.93,3.86,22.53,11.6,35.57,12.14q.51-19.1,1-38.2c0-1.42,0-2.85,0-4.28.14-4.49-1.55-6-6-4.21C575.35,33.88,556.8,41.34,536.05,49.73Z"/></g></g></g></svg>