<?xml version="1.0" encoding="UTF-8"?>
<svg width="21px" height="24px" viewBox="0 0 21 24" version="1.1" xmlns="http://www.w3.org/2000/svg" xmlns:xlink="http://www.w3.org/1999/xlink">
    <!-- Generator: Sketch 63.1 (92452) - https://sketch.com -->
    <title>Group 10</title>
    <desc>Created with Sketch.</desc>
    <g id="Page-1" stroke="none" stroke-width="1" fill="none" fill-rule="evenodd">
        <g id="Metas-detalhadas" transform="translate(-298.000122, -48.000000)" stroke="#979797">
            <g id="Group-10" transform="translate(298.000122, 47.680649)">
                <path d="M18.3834099,5.90356445 L2.38384519,5.90356445 C2.04983382,7.95607487 2.33392828,13.1765009 3.20053926,21.5578392 C3.24006943,21.9401512 3.42090745,22.2765843 3.68795065,22.5174386 C3.95499282,22.758292 4.30823954,22.9035671 4.69258827,22.9035645 L16.2767801,22.9035645 C16.6668567,22.9035645 17.0243716,22.7540573 17.2924628,22.5073679 C17.5605558,22.2606769 17.7392241,21.9168024 17.771605,21.5280696 C18.50609,12.7092891 18.7354734,7.49175337 18.3834099,5.90356445 Z" id="Rectangle"></path>
                <path d="M19.6873726,3.80002592 C19.2993914,3.48749086 14.4274496,3.39713027 9.83921008,3.39713027 C5.73671536,3.39713027 1.71184623,3.43444115 1.34045421,3.77778938 C0.931210267,4.15613134 0.742669187,4.86781137 0.698479296,5.86537369 L20.2937297,5.86537369 C20.237952,4.82337181 20.0706059,4.1087364 19.6873726,3.80002592 Z" id="Rectangle"></path>
                <path d="M12.2915698,1.24078258 L8.70843024,1.24078258 C8.29421668,1.24078258 7.91921668,1.4086758 7.64777007,1.68012241 C7.37632346,1.95156902 7.20843024,2.32656902 7.20843024,2.74078258 L7.20843024,3.34021558 L13.7915698,3.34021558 L13.7915698,2.74078258 C13.7915698,2.32656902 13.6236765,1.95156902 13.3522299,1.68012241 C13.0807833,1.4086758 12.7057833,1.24078258 12.2915698,1.24078258 Z" id="Rectangle"></path>
                <line x1="6.70843024" y1="8.94642996" x2="6.70843024" y2="20.0763023" id="Path-25"></line>
                <line x1="10.5032479" y1="8.94642996" x2="10.5032479" y2="20.0763023" id="Path-25-Copy"></line>
                <line x1="14.2915698" y1="8.94642996" x2="14.2915698" y2="20.0763023" id="Path-25-Copy-2"></line>
            </g>
        </g>
    </g>
</svg>
